<?xml version="1.0" encoding="UTF-8" standalone="no"?>
<svg
   xmlns:dc="http://purl.org/dc/elements/1.1/"
   xmlns:cc="http://creativecommons.org/ns#"
   xmlns:rdf="http://www.w3.org/1999/02/22-rdf-syntax-ns#"
   xmlns:svg="http://www.w3.org/2000/svg"
   xmlns="http://www.w3.org/2000/svg"
   xmlns:sodipodi="http://sodipodi.sourceforge.net/DTD/sodipodi-0.dtd"
   xmlns:inkscape="http://www.inkscape.org/namespaces/inkscape"
   id="svg8"
   version="1.1"
   viewBox="0 0 500 500"
   height="500mm"
   width="500mm"
   sodipodi:docname="LinkPlayerLogoWhite.svg"
   inkscape:version="0.92.4 (5da689c313, 2019-01-14)">
  <sodipodi:namedview
     pagecolor="#ffffff"
     bordercolor="#666666"
     borderopacity="1"
     objecttolerance="10"
     gridtolerance="10"
     guidetolerance="10"
     inkscape:pageopacity="0"
     inkscape:pageshadow="2"
     inkscape:window-width="2560"
     inkscape:window-height="1377"
     id="namedview847"
     showgrid="false"
     inkscape:zoom="0.63923333"
     inkscape:cx="829.194"
     inkscape:cy="747.8509"
     inkscape:window-x="-8"
     inkscape:window-y="-8"
     inkscape:window-maximized="1"
     inkscape:current-layer="layer1" />
  <defs
     id="defs2" />
  <metadata
     id="metadata5">
    <rdf:RDF>
      <cc:Work
         rdf:about="">
        <dc:format>image/svg+xml</dc:format>
        <dc:type
           rdf:resource="http://purl.org/dc/dcmitype/StillImage" />
        <dc:title />
      </cc:Work>
    </rdf:RDF>
  </metadata>
  <g
     transform="translate(0,203)"
     id="layer1">
    <a
       style="fill:#ffffff;stroke:none"
       id="a4549">
      <rect
         style="fill:#ffffff;fill-opacity:0.98994978;stroke:none;stroke-width:0.27086148;stroke-opacity:1;paint-order:stroke fill markers"
         id="rect4534"
         width="305.8801"
         height="444.73453"
         x="114.80118"
         y="-174.99701"
         ry="14.950988" />
    </a>
    <rect
       ry="14.282083"
       y="-153.86327"
       x="146.77632"
       height="244.54047"
       width="241.30826"
       id="rect4536"
       style="fill:#2f2f2f;fill-opacity:1;stroke:#000000;stroke-width:0.24364004;stroke-opacity:1;paint-order:stroke fill markers" />
    <ellipse
       ry="67.91143"
       rx="72.454994"
       cy="176.72874"
       cx="265.39862"
       id="path4545"
       style="fill:#2f2f2f;fill-opacity:1;stroke:#000000;stroke-width:0.2146569;stroke-opacity:1;paint-order:stroke fill markers" />
    <ellipse
       ry="39.516949"
       rx="40.051487"
       cy="175.65962"
       cx="266.20041"
       id="path4547"
       style="fill:#ffffff;fill-opacity:0.98994978;stroke:none;stroke-width:0.34246501;stroke-opacity:1;paint-order:stroke fill markers" />
    <path
       id="path4581"
       d="m 291.32379,175.12509 -34.74505,-26.72694 -1.06908,52.38482 32.07234,-24.58881"
       style="fill:none;stroke:#000000;stroke-width:0.26458332px;stroke-linecap:butt;stroke-linejoin:miter;stroke-opacity:1" />
    <path
       id="path4583"
       d="m 291.32379,175.12509 -34.74505,-26.72694 -1.06908,52.38482 z"
       style="fill:#2f2f2f;stroke:#000000;stroke-width:0.26458332px;stroke-linecap:butt;stroke-linejoin:miter;stroke-opacity:1;fill-opacity:1" />
    <text
       xml:space="preserve"
       style="font-style:normal;font-weight:normal;font-size:61.2537384px;line-height:1.25;font-family:sans-serif;letter-spacing:0px;word-spacing:0px;fill:#ffffff;fill-opacity:1;stroke:none;stroke-width:0.3190299"
       x="179.85345"
       y="-11.491413"
       id="text853"
       transform="scale(0.97849063,1.0219822)"><tspan
         sodipodi:role="line"
         x="179.85345"
         y="-11.491413"
         id="tspan851"
         style="stroke-width:0.3190299"><tspan
           x="179.85345"
           y="-11.491413"
           id="tspan849"
           style="stroke-width:0.3190299">https://</tspan></tspan></text>
    <path
       style="fill:#000000;fill-opacity:1;stroke:none;stroke-width:3.12874794;stroke-opacity:1;paint-order:stroke fill markers"
       d="m 581.97431,1100.6735 c -5.83342,-3.9312 -13.80757,-11.898 -17.72035,-17.7042 l -7.11414,-10.5567 V 647.82827 223.24392 l 7.11414,-10.55667 c 3.91278,-5.80616 11.88693,-13.77305 17.72035,-17.70419 l 10.60622,-7.14753 420.07537,0.81558 420.0755,0.81558 8.833,6.54517 c 4.8581,3.59985 12.0008,11.19973 15.8727,16.88862 l 7.0396,10.34344 v 245.0726 245.0726 l -7.8218,20.7808 c -9.6471,25.62989 -9.6471,26.29328 0,26.29328 h 7.8218 v 155.97472 155.97468 l -7.0396,10.3435 c -3.8719,5.6888 -11.0146,13.2887 -15.8727,16.8886 l -8.833,6.5451 -420.0755,0.8156 -420.07537,0.8156 z M 1029.5808,746.04909 c 0,-24.57713 0.4782,-26.69611 5.4753,-24.26154 3.0114,1.46714 14.6269,2.67374 25.8122,2.68131 26.0026,0.0188 38.2152,-7.93932 49.2797,-32.10746 14.0747,-30.74324 6.2208,-79.81264 -15.2883,-95.51743 -13.3189,-9.72477 -33.0167,-10.23228 -50.4174,-1.29899 -13.8571,7.11405 -14.8615,7.23557 -14.8615,1.79778 0,-4.57927 -2.3522,-5.83196 -10.9506,-5.83196 h -10.9507 v 90.7337 90.73369 h 10.9507 10.9506 z m 375.2975,-91.18114 c 21.3512,-58.07738 39.4222,-107.35516 40.1579,-109.50618 0.9074,-2.65311 -2.292,-3.91093 -9.9478,-3.91093 -6.207,0 -11.2854,0.40132 -11.2854,0.89181 0,0.4905 -17.5992,48.57876 -39.1093,106.8628 -21.5102,58.28401 -39.1094,107.16046 -39.1094,108.61436 0,1.45387 4.6066,2.64339 10.2368,2.64339 h 10.2368 z m -516.87338,69.207 c 5.50319,-1.4748 7.03969,-4.14769 7.03969,-12.2462 v -10.35963 l -16.75673,1.72945 c -24.58437,2.53732 -27.04574,-2.13806 -27.04574,-51.37336 v -38.41317 h 21.90123 21.90124 V 602.46142 591.5108 H 873.14337 851.24214 V 572.73832 553.96583 H 840.29152 829.3409 v 18.77249 c 0,17.93814 -0.34764,18.77248 -7.82187,18.77248 -6.85345,0 -7.82187,1.35578 -7.82187,10.95062 0,9.50817 1.00062,10.95062 7.59646,10.95062 h 7.59646 l 1.0076,47.1956 1.00759,47.19563 10.2178,9.12183 c 8.26077,7.37474 13.05477,9.11367 25.02999,9.07916 8.1467,-0.025 17.98004,-0.89169 21.85186,-1.92931 z m 89.69561,0.0729 c 3.10647,-1.19205 4.94902,-5.68046 4.94902,-12.05572 v -10.15658 l -15.07668,1.44868 c -23.87119,2.29371 -25.59704,-1.04529 -25.59704,-49.52195 v -40.45024 h 20.33686 20.33686 V 602.46142 591.5108 h -20.18074 -20.1807 l -0.93835,-17.9903 -0.93831,-17.9903 -11.7328,-0.97107 -11.73281,-0.97104 v 18.96134 c 0,16.87553 -0.68835,18.96137 -6.25749,18.96137 -5.0656,0 -6.2575,2.08585 -6.2575,10.95062 0,8.86478 1.1919,10.95062 6.2575,10.95062 5.91599,0 6.25843,2.09166 6.27495,38.32716 0.0219,46.98513 3.19611,60.0281 16.60048,68.20133 9.81607,5.98529 33.59622,8.2521 44.13675,4.20732 z m 235.84957,-2.49674 c 16.7358,-8.70762 24.0924,-19.84033 24.0924,-36.45883 0,-21.46234 -8.7984,-29.59223 -40.9296,-37.81959 -28.9136,-7.40346 -33.2438,-10.26198 -31.972,-21.10534 1.9628,-16.73377 30.0956,-20.30633 55.526,-7.05123 l 12.6825,6.61048 v -13.78652 c 0,-13.12869 -0.5598,-13.9788 -11.7328,-17.81703 -17.8411,-6.12884 -47.896,-4.9922 -60.5442,2.28975 -14.0618,8.09582 -22.9135,26.04726 -20.1382,40.8408 3.0495,16.25528 14.3197,24.93324 39.9527,30.76335 28.1825,6.40999 33.69,9.46815 33.69,18.70728 0,21.89805 -34.7681,25.85776 -64.9215,7.39386 l -10.1684,-6.22646 v 13.99993 c 0,13.22665 0.648,14.26868 11.7328,18.86644 14.9117,6.1851 51.4785,6.64743 62.7303,0.79311 z M 707.31973,674.99875 v -47.91946 l 12.1588,-6.83363 c 13.93535,-7.8321 30.81048,-8.8532 39.64973,-2.39915 5.49735,4.01393 6.1679,9.2064 7.07079,54.75309 l 0.99748,50.31862 h 12.2997 12.29969 l -0.0181,-38.32716 c -0.025,-53.13096 -3.70193,-73.21436 -15.57809,-85.09053 -8.32338,-8.32338 -11.59501,-9.44982 -27.44594,-9.44982 -13.35134,0 -21.02078,1.86933 -29.71509,7.24274 l -11.71893,7.24271 V 572.9935 541.45084 h -10.95062 -10.95062 v 90.73369 90.73369 h 10.95062 10.95062 z m 603.84837,30.71136 v -17.20812 h -14.0794 -14.0793 v 17.20812 17.20811 h 14.0793 14.0794 z m 0,-95.42682 V 591.5108 h -14.0794 -14.0793 v 18.77249 18.77249 h 14.0793 14.0794 z"
       id="path825"
       inkscape:connector-curvature="0"
       transform="matrix(0.26458333,0,0,0.26458333,0,-203)" />
    <path
       style="fill:#000000;fill-opacity:1;stroke:none;stroke-width:3.12874794;stroke-opacity:1;paint-order:stroke fill markers"
       d="m 941.97583,1683.8454 c -100.25579,-21.9708 -179.23631,-95.5586 -203.59207,-189.6908 -8.90405,-34.4131 -8.89222,-84.6326 0.028,-118.7109 31.21595,-119.2561 149.12852,-201.6424 278.65404,-194.6974 113.1027,6.0644 210.1693,75.644 244.3231,175.1367 47.4373,138.1887 -33.1658,281.7216 -182.2914,324.6132 -33.4567,9.6228 -100.96983,11.2718 -137.12163,3.3492 z m 102.82257,-107.1003 c 22.6777,-5.1106 50.656,-21.2492 69.491,-40.0842 28.5133,-28.5133 43.6316,-64.9648 43.4935,-104.8669 -0.152,-44.01 -12.7444,-74.5014 -43.4883,-105.3049 -61.3645,-61.4832 -155.16577,-61.4832 -216.27239,0 -30.68567,30.8749 -43.42389,61.6586 -43.57484,105.3049 -0.19861,57.4251 32.92433,109.6349 85.34939,134.5315 33.14254,15.7393 66.64434,19.0638 105.00164,10.4196 z"
       id="path827"
       inkscape:connector-curvature="0"
       transform="matrix(0.26458333,0,0,0.26458333,0,-203)" />
    <path
       style="fill:#000000;fill-opacity:1;stroke:none;stroke-width:1.10617948;stroke-opacity:1;paint-order:stroke fill markers"
       d="m 966.78995,1520.1959 c -0.068,-8.4924 3.68432,-189.5543 3.93474,-189.8634 0.25289,-0.3123 124.33031,94.6934 127.47071,97.6039 1.0969,1.0166 -12.778,11.4602 -64.1074,48.2534 -36.02907,25.8258 -65.90364,47.1219 -66.38795,47.3247 -0.48432,0.2028 -0.89386,-1.2906 -0.9101,-3.3186 z"
       id="path829"
       inkscape:connector-curvature="0"
       transform="matrix(0.26458333,0,0,0.26458333,0,-203)" />
    <path
       style="fill:#000000;fill-opacity:1;stroke:none;stroke-width:1.56437397;stroke-opacity:1;paint-order:stroke fill markers"
       d="m 1044.4519,703.81982 c -1.2906,-0.41797 -5.3385,-1.82856 -8.9952,-3.13463 l -6.6486,-2.37467 v -36.30287 -36.30287 l 8.213,-4.9428 c 11.4788,-6.90825 16.3169,-8.49862 26.2321,-8.62286 13.7642,-0.17247 23.0439,6.46509 27.6896,19.8058 3.7284,10.70676 3.6548,39.31381 -0.1269,49.30883 -6.1447,16.24021 -16.8861,23.65892 -33.9519,23.44953 -5.5361,-0.0679 -11.1215,-0.46548 -12.4121,-0.88346 z"
       id="path831"
       inkscape:connector-curvature="0"
       transform="matrix(0.26458333,0,0,0.26458333,0,-203)" />
  </g>
</svg>
