<?xml version="1.0" encoding="UTF-8" standalone="no"?>
<svg
   xmlns:dc="http://purl.org/dc/elements/1.1/"
   xmlns:cc="http://creativecommons.org/ns#"
   xmlns:rdf="http://www.w3.org/1999/02/22-rdf-syntax-ns#"
   xmlns:svg="http://www.w3.org/2000/svg"
   xmlns="http://www.w3.org/2000/svg"
   id="svg8"
   version="1.1"
   viewBox="0 0 500 500"
   height="500mm"
   width="500mm">
  <defs
     id="defs2" />
  <metadata
     id="metadata5">
    <rdf:RDF>
      <cc:Work
         rdf:about="">
        <dc:format>image/svg+xml</dc:format>
        <dc:type
           rdf:resource="http://purl.org/dc/dcmitype/StillImage" />
        <dc:title></dc:title>
      </cc:Work>
    </rdf:RDF>
  </metadata>
  <g
     transform="translate(0,203)"
     id="layer1">
    <a
       style="fill:#ffffff;stroke:none;stroke-opacity:1"
       id="a4549">
      <rect
         style="fill:#ffffff;fill-opacity:0.98994978;stroke:none;stroke-width:0.27086148;stroke-opacity:1;paint-order:stroke fill markers"
         id="rect4534"
         width="305.8801"
         height="444.73453"
         x="114.80118"
         y="-174.99701"
         ry="14.950988" />
    </a>
    <rect
       ry="14.282083"
       y="-153.86327"
       x="146.77632"
       height="244.54047"
       width="241.30826"
       id="rect4536"
       style="fill:#000000;fill-opacity:0.98994978;stroke:#000000;stroke-width:0.24364004;stroke-opacity:1;paint-order:stroke fill markers" />
    <ellipse
       ry="67.91143"
       rx="72.454994"
       cy="176.72874"
       cx="265.39862"
       id="path4545"
       style="fill:#000000;fill-opacity:0.98994978;stroke:#000000;stroke-width:0.2146569;stroke-opacity:1;paint-order:stroke fill markers" />
    <ellipse
       ry="39.516949"
       rx="40.051487"
       cy="175.65962"
       cx="266.20041"
       id="path4547"
       style="fill:#000000;fill-opacity:0.98994978;stroke:#000000;stroke-width:0.34246501;stroke-opacity:1;paint-order:stroke fill markers" />
    <path
       id="path4581"
       d="m 291.32379,175.12509 -34.74505,-26.72694 -1.06908,52.38482 32.07234,-24.58881"
       style="fill:none;stroke:#000000;stroke-width:0.26458332px;stroke-linecap:butt;stroke-linejoin:miter;stroke-opacity:1" />
    <path
       id="path4583"
       d="m 291.32379,175.12509 -34.74505,-26.72694 -1.06908,52.38482 z"
       style="fill:#000000;stroke:#000000;stroke-width:0.26458332px;stroke-linecap:butt;stroke-linejoin:miter;stroke-opacity:1" />
    <text
       xml:space="preserve"
       style="font-style:normal;font-weight:normal;font-size:61.2537384px;line-height:1.25;font-family:sans-serif;letter-spacing:0px;word-spacing:0px;fill:#ffffff;fill-opacity:1;stroke:none;stroke-width:0.3190299;"
       x="178.99495"
       y="-13.347507"
       id="text4607"
       transform="scale(0.97849063,1.0219822)"><tspan
         x="178.99495"
         y="-13.347507"
         id="tspan4605"
         style="stroke-width:0.3190299;fill:#ffffff;"><tspan
           x="178.99495"
           y="-13.347507"
           id="tspan4603"
           style="stroke-width:0.3190299;fill:#ffffff;">https://</tspan></tspan></text>
    <path
       transform="matrix(0.26458333,0,0,0.26458333,0,-203)"
       id="path823"
       d="m 987.42035,1578.832 c -34.95264,-5.3778 -61.69598,-18.0284 -85.09101,-40.2514 -43.94976,-41.748 -58.23367,-102.2108 -37.54124,-158.9094 17.76067,-48.6654 61.75695,-85.0632 115.28607,-95.3754 6.11994,-1.179 41.20323,-1.3097 49.54373,-0.1846 38.5889,5.2056 78.8018,30.4536 101.3218,63.6157 11.2811,16.6121 21.9394,43.3399 24.7718,62.1199 0.6909,4.5813 0.6942,37.8086 0,42.6189 -3.7989,26.4835 -19.2919,58.3032 -38.4775,79.026 -32.548,35.1557 -84.9089,54.25 -129.81788,47.3403 z m 47.05295,-101.0395 c 36.5594,-26.0812 66.5071,-47.8684 66.5504,-48.416 0.1024,-1.296 -128.41895,-100.2151 -130.20527,-100.2151 -0.74842,0 -1.39228,0.1592 -1.4308,0.3539 -0.16393,0.8283 -4.07521,178.1755 -4.12348,186.9685 -0.0316,5.7532 0.51232,9.4816 1.34223,9.201 0.76742,-0.2595 31.30756,-21.8111 67.86692,-47.8923 z"
       style="fill:#ffffff;fill-opacity:1;stroke:none;stroke-width:1.41553473;stroke-opacity:1;paint-order:stroke fill markers" />
    <path
       transform="matrix(0.26458333,0,0,0.26458333,0,-203)"
       id="path825"
       d="M 975.82757,1689.9637 C 887.29469,1681.6805 806.8395,1631.61 763.5143,1557.8326 c -8.58817,-14.6246 -18.84027,-37.924 -23.3495,-53.0651 -12.65724,-42.5007 -13.09372,-92.0628 -1.18494,-134.5497 19.0811,-68.0756 68.60603,-126.9157 134.9292,-160.3082 130.95184,-65.932 293.78564,-21.6165 367.20674,99.9359 58.2478,96.4322 42.6412,218.4548 -38.2924,299.3954 -23.4673,23.4692 -44.4937,38.4099 -74.8487,53.1848 -46.8553,22.8063 -99.9697,32.4197 -152.14713,27.538 z M 1044.75,1576.9874 c 35.0238,-9.5285 68.6448,-32.9104 87.4275,-60.8019 24.9869,-37.1046 32.7444,-82.8769 21.1726,-124.9284 -6.5692,-23.8726 -24.1763,-52.9743 -41.7898,-69.0721 -30.0299,-27.4456 -65.197,-41.1518 -105.5866,-41.1518 -75.60248,0 -138.54714,52.9184 -150.48353,126.5134 -12.24354,75.4888 35.85923,149.1824 110.02736,168.5624 18.89501,4.9372 17.9771,4.8477 44.28287,4.3214 18.8806,-0.3777 26.4089,-1.1194 34.9496,-3.443 z"
       style="fill:none;fill-opacity:1;stroke:none;stroke-width:1.41553473;stroke-opacity:1;paint-order:stroke fill markers" />
  </g>
</svg>
